<?xml version="1.0" encoding="UTF-8"?>
<svg xmlns="http://www.w3.org/2000/svg" viewBox="0 0 260 260">
  <defs>
    <style>
      .cls-1 {
        fill: #fff;
      }

      .cls-2 {
        fill: #8e96ce;
      }

      .cls-2, .cls-3 {
        isolation: isolate;
        opacity: .75;
      }

      .cls-3 {
        fill: #38f8b4;
      }
    </style>
  </defs>
  <g id="Layer_3" data-name="Layer 3">
    <rect class="cls-3" y="130" width="260" height="130"/>
    <rect class="cls-2" x="130" width="130" height="260"/>
  </g>
  <g id="Layer_2" data-name="Layer 2">
    <g>
      <path class="cls-1" d="M31.28,125.21h9.43v4.79h-15.34v-4.64l7.81-8.57h-7.45v-4.79h14.65v4.68l-5.4,5.51-3.71,3.02Z"/>
      <path class="cls-1" d="M60.44,120.86c0,.72-.01,1.34-.04,1.87h-12.24c.17,1.22,.55,2.11,1.15,2.65,.6,.54,1.48,.81,2.63,.81,.86,0,1.54-.16,2.03-.49,.49-.32,.95-.92,1.39-1.78l4.68,1.66c-1.27,3.19-4.02,4.79-8.24,4.79-2.78,0-5.03-.85-6.75-2.54-1.72-1.69-2.57-3.92-2.57-6.68s.84-5.12,2.52-6.88c1.68-1.75,3.89-2.63,6.62-2.63s4.77,.85,6.39,2.54,2.43,3.92,2.43,6.68Zm-8.71-5.22c-1.1,0-1.94,.28-2.5,.83-.56,.55-.92,1.45-1.06,2.7h6.88c-.02-1.27-.3-2.18-.83-2.72-.53-.54-1.36-.81-2.48-.81Z"/>
      <path class="cls-1" d="M75.92,116.79h-4.97v8.42h4.61v4.79h-3.96c-1.82,0-3.3-.56-4.43-1.69-1.13-1.13-1.69-2.6-1.69-4.43v-7.09h-3.2v-4.79h3.2v-5.22h5.47v5.22h4.97v4.79Z"/>
      <path class="cls-1" d="M85.71,130.36c-2.33,0-4.21-.52-5.63-1.57-1.43-1.04-2.23-2.26-2.39-3.65l5.08-1.33c.1,.98,.41,1.66,.94,2.02,.53,.36,1.32,.54,2.38,.54,.7,0,1.27-.14,1.73-.41,.46-.28,.68-.65,.68-1.13s-.18-.89-.54-1.15-1.04-.47-2.05-.61l-2.77-.4c-1.7-.24-2.99-.84-3.85-1.8-.86-.96-1.3-2.2-1.3-3.71,0-1.75,.65-3.11,1.94-4.07,1.3-.96,3.13-1.44,5.51-1.44,4.63,0,7.26,1.66,7.88,4.97l-4.68,1.08c-.1-.89-.35-1.49-.76-1.82-.41-.32-1.16-.49-2.27-.49-1.44,0-2.16,.52-2.16,1.55,0,.43,.17,.78,.5,1.04,.34,.26,.94,.44,1.8,.54l3.24,.4c1.56,.19,2.78,.76,3.65,1.71s1.31,2.17,1.31,3.65c0,1.94-.71,3.44-2.14,4.5-1.43,1.06-3.46,1.58-6.1,1.58Z"/>
      <path class="cls-1" d="M108.29,112h5.9l-7.2,19.44c-.6,1.58-1.46,2.76-2.59,3.53-1.13,.77-2.76,1.15-4.9,1.15h-3.6v-4.79h5.54l-6.98-19.33h5.9l2.95,10.01,.9,3.64,.97-3.64,3.1-10.01Z"/>
    </g>
  </g>
</svg>